<svg aria-hidden="true" style="position: absolute; width: 0; height: 0; overflow: hidden;" version="1.1" xmlns="http://www.w3.org/2000/svg" xmlns:xlink="http://www.w3.org/1999/xlink">
<defs>
<symbol id="icon-empty-favorits" viewBox="0 0 39 32">
<path fill="#9bb537" style="fill: var(--color1, #9bb537)" d="M7.696 13.367h24.304v18.633h-24.304v-18.633z"></path>
<path fill="#9bb537" style="fill: var(--color1, #9bb537)" d="M17.418 11.949c0 4.81-3.899 8.709-8.709 8.709s-8.709-3.899-8.709-8.709c0-4.81 3.899-8.709 8.709-8.709s8.709 3.899 8.709 8.709z"></path>
<path fill="#9bb537" style="fill: var(--color1, #9bb537)" d="M28.354 8.709c0 4.81-3.899 8.709-8.709 8.709s-8.709-3.899-8.709-8.709c0-4.81 3.899-8.709 8.709-8.709s8.709 3.899 8.709 8.709z"></path>
<path fill="#9bb537" style="fill: var(--color1, #9bb537)" d="M39.291 11.949c0 4.81-3.899 8.709-8.709 8.709s-8.709-3.899-8.709-8.709c0-4.81 3.899-8.709 8.709-8.709s8.709 3.899 8.709 8.709z"></path>
<path fill="#f8f8f8" style="fill: var(--color2, #f8f8f8)" d="M14.987 10.884c0-0.642 0.453-1.163 1.013-1.163s1.013 0.521 1.013 1.163v5.371c0 0.642-0.453 1.163-1.013 1.163s-1.013-0.521-1.013-1.163v-5.371z"></path>
<path fill="#f8f8f8" style="fill: var(--color2, #f8f8f8)" d="M18.228 10.884c0-0.642 0.635-1.163 1.418-1.163s1.418 0.521 1.418 1.163v5.371c0 0.642-0.635 1.163-1.418 1.163s-1.418-0.521-1.418-1.163v-5.371z"></path>
<path fill="#f8f8f8" style="fill: var(--color2, #f8f8f8)" d="M22.278 10.884c0-0.642 0.453-1.163 1.013-1.163s1.013 0.521 1.013 1.163v5.371c0 0.642-0.453 1.163-1.013 1.163s-1.013-0.521-1.013-1.163v-5.371z"></path>
<path fill="#050505" style="fill: var(--color3, #050505)" d="M29.612 3.29c0.303-0.032 0.611-0.048 0.922-0.048 3.902 0 7.208 2.535 8.34 6.037-0.303 0.031-0.611 0.048-0.922 0.048-3.902 0-7.208-2.535-8.34-6.037z"></path>
</symbol>
</defs>
</svg>
